# xmcd
#
# Track frame offsets: 
#        150
#        13774
#        25232
#        37256
#        50857
#        63461
#        76841
#        87986
#        100805
#        112842
#        124360
#        137094
#        149299
#        160413
#        173432
#        186199
#        197713
#        209482
#        221299
#        233260
#        245751
#        259082
#        275452
#        287920
#        299227
#
# Disc length: 4149 seconds
#
# Revision: 1
# Processed by: cddbd v1.5.2PL0 Copyright (c) Steve Scherf et al.
# Submitted via: ExactAudioCopy v1.1
#
DISCID=7f103319
DTITLE=Earl Bostic - The Earl Bostic Story - Disc 4
DYEAR=2006
DGENRE=R&B
TTITLE0=The Song Is Ended (mono)
TTITLE1=Melancholy Serenade (mono)
TTITLE2=The Very Thought Of You (mono)
TTITLE3=Memories (mono)
TTITLE4=What, No Pearls (mono)
TTITLE5=Smoke Rings (mono)
TTITLE6=Deep Purple (mono)
TTITLE7=Jungle Drums (mono)
TTITLE8=Cracked Ice (mono)
TTITLE9=Danube Waves (mono)
TTITLE10=Poeme (mono)
TTITLE11=My Heart At The Sweet Voice (mono)
TTITLE12=O Sole Mio (mono)
TTITLE13=Off Shore (mono)
TTITLE14=Blue Skies (mono)
TTITLE15=Mambostic (mono)
TTITLE16=Time On My Hands (mono)
TTITLE17=Mambolino (mono)
TTITLE18=These Foolish Things (mono)
TTITLE19=Song Of The Island (mono)
TTITLE20=Liebestraum (mono)
TTITLE21=Night And Day (mono)
TTITLE22=Sweet Lorraine (mono)
TTITLE23=Beyond The Blue Horizon (mono)
TTITLE24=East Of The Sun (mono)
EXTD=
EXTT0=
EXTT1=
EXTT2=
EXTT3=
EXTT4=
EXTT5=
EXTT6=
EXTT7=
EXTT8=
EXTT9=
EXTT10=
EXTT11=
EXTT12=
EXTT13=
EXTT14=
EXTT15=
EXTT16=
EXTT17=
EXTT18=
EXTT19=
EXTT20=
EXTT21=
EXTT22=
EXTT23=
EXTT24=
PLAYORDER=
